<svg width="82" height="28" viewBox="0 0 82 28" fill="none" xmlns="http://www.w3.org/2000/svg">
<path d="M14 2.33331C12.4679 2.33331 10.9508 2.63508 9.53537 3.22139C8.1199 3.80769 6.83378 4.66705 5.75043 5.7504C3.56251 7.93833 2.33334 10.9058 2.33334 14C2.33334 19.1566 5.68168 23.5316 10.3133 25.0833C10.8967 25.1766 11.0833 24.815 11.0833 24.5V22.5283C7.85168 23.2283 7.16334 20.965 7.16334 20.965C6.62668 19.6116 5.86834 19.25 5.86834 19.25C4.80668 18.5266 5.95001 18.55 5.95001 18.55C7.11668 18.6316 7.73501 19.7516 7.73501 19.7516C8.75001 21.525 10.465 21 11.13 20.72C11.235 19.9616 11.5383 19.4483 11.865 19.1566C9.27501 18.865 6.55668 17.8616 6.55668 13.4166C6.55668 12.1216 7.00001 11.0833 7.75834 10.255C7.64168 9.96331 7.23334 8.74998 7.87501 7.17498C7.87501 7.17498 8.85501 6.85998 11.0833 8.36498C12.005 8.10831 13.0083 7.97998 14 7.97998C14.9917 7.97998 15.995 8.10831 16.9167 8.36498C19.145 6.85998 20.125 7.17498 20.125 7.17498C20.7667 8.74998 20.3583 9.96331 20.2417 10.255C21 11.0833 21.4433 12.1216 21.4433 13.4166C21.4433 17.8733 18.7133 18.8533 16.1117 19.145C16.5317 19.5066 16.9167 20.2183 16.9167 21.3033V24.5C16.9167 24.815 17.1033 25.1883 17.6983 25.0833C22.33 23.52 25.6667 19.1566 25.6667 14C25.6667 12.4679 25.3649 10.9508 24.7786 9.53534C24.1923 8.11987 23.3329 6.83375 22.2496 5.7504C21.1662 4.66705 19.8801 3.80769 18.4646 3.22139C17.0492 2.63508 15.5321 2.33331 14 2.33331Z" fill="white"/>
<g clip-path="url(#clip0_41_145)">
<path d="M41.6383 12.9739H37.4332C37.3811 12.9739 37.3311 12.9953 37.2942 13.0333C37.2574 13.0714 37.2366 13.1229 37.2366 13.1767V15.2972C37.2366 15.4091 37.3247 15.5001 37.4331 15.5001H39.0736V18.1346C39.0736 18.1346 38.7053 18.2642 37.6869 18.2642C36.4854 18.2642 34.807 17.8113 34.807 14.0049C34.807 10.1977 36.5548 9.69686 38.1955 9.69686C39.6157 9.69686 40.2276 9.95471 40.6169 10.079C40.7393 10.1177 40.8524 9.99207 40.8524 9.88007L41.3215 7.83124C41.3215 7.77886 41.3043 7.71581 41.2464 7.67301C41.0883 7.55668 40.1237 7 37.6868 7C34.8797 7 32 8.2318 32 14.1534C32 20.0752 35.2969 20.9576 38.0752 20.9576C40.3755 20.9576 41.7709 19.9438 41.7709 19.9438C41.8285 19.911 41.8347 19.8281 41.8347 19.7901V13.1767C41.8347 13.0649 41.7467 12.9739 41.6383 12.9739ZM63.2985 7.74119C63.2985 7.62839 63.2118 7.53734 63.1033 7.53734H60.7355C60.7097 7.53744 60.6841 7.5428 60.6603 7.5531C60.6364 7.5634 60.6148 7.57845 60.5966 7.59738C60.5784 7.61631 60.5639 7.63875 60.5541 7.66343C60.5443 7.6881 60.5393 7.71453 60.5395 7.74119L60.54 12.4605H56.8494V7.7413C56.8494 7.62849 56.7623 7.53744 56.654 7.53744H54.2861C54.234 7.53773 54.1841 7.55937 54.1474 7.5976C54.1107 7.63583 54.0903 7.68751 54.0905 7.7413V20.5198C54.0905 20.6326 54.1784 20.7242 54.2861 20.7242H56.6538C56.7621 20.7242 56.8491 20.6326 56.8491 20.5198V15.0539H60.5398L60.5334 20.5197C60.5334 20.6325 60.6213 20.7241 60.7295 20.7241H63.1029C63.2113 20.7241 63.298 20.6325 63.2982 20.5197L63.2985 7.74119ZM46.0986 9.4497C46.0986 8.57042 45.415 7.85974 44.5718 7.85974C43.7293 7.85974 43.0452 8.57032 43.0452 9.4497C43.0452 10.328 43.7293 11.0406 44.5718 11.0406C45.415 11.0406 46.0986 10.328 46.0986 9.4497ZM45.9107 17.8308V11.9322C45.9109 11.8785 45.8904 11.8268 45.8536 11.7887C45.8169 11.7505 45.767 11.7289 45.7148 11.7287H43.3546C43.2463 11.7287 43.1495 11.8439 43.1495 11.9559V20.4068C43.1495 20.6551 43.2995 20.729 43.4937 20.729H45.6202C45.8536 20.729 45.9107 20.6108 45.9107 20.4027V17.8308ZM72.3479 11.7288H69.9982C69.8904 11.7288 69.8027 11.8203 69.8027 11.933V18.1988C69.8027 18.1988 69.2059 18.6492 68.3586 18.6492C67.5113 18.6492 67.2866 18.2527 67.2866 17.3972V11.9331C67.2866 11.8203 67.199 11.7287 67.0912 11.7287H64.7065C64.5989 11.7287 64.5107 11.8203 64.5107 11.9331V17.8109C64.5107 20.3521 65.8841 20.9738 67.7732 20.9738C69.323 20.9738 70.5726 20.0908 70.5726 20.0908C70.5726 20.0908 70.6321 20.5561 70.659 20.6113C70.6859 20.6664 70.7561 20.7219 70.8318 20.7219L72.3489 20.7151C72.4565 20.7151 72.5447 20.6233 72.5447 20.5111L72.5439 11.933C72.5442 11.8791 72.5236 11.8274 72.4869 11.7891C72.4501 11.7508 72.4001 11.7291 72.3479 11.7288ZM77.7614 18.654C76.9465 18.6285 76.3937 18.247 76.3937 18.247V14.2002C76.3937 14.2002 76.9391 13.8555 77.6081 13.7938C78.4542 13.7157 79.2695 13.9793 79.2695 16.061C79.2695 18.2562 78.9016 18.6895 77.7614 18.654ZM78.6882 11.4542C77.3537 11.4542 76.446 12.0683 76.446 12.0683V7.74119C76.4462 7.71457 76.4413 7.68818 76.4315 7.66352C76.4218 7.63886 76.4075 7.61642 76.3893 7.59749C76.3712 7.57855 76.3496 7.56349 76.3258 7.55317C76.302 7.54285 76.2765 7.53747 76.2507 7.53734H73.8762C73.8503 7.53746 73.8248 7.54283 73.801 7.55314C73.7771 7.56345 73.7555 7.5785 73.7374 7.59743C73.7192 7.61637 73.7048 7.63881 73.695 7.66347C73.6853 7.68814 73.6803 7.71455 73.6805 7.74119V20.5197C73.6805 20.6325 73.7682 20.7241 73.8765 20.7241H75.5239C75.5981 20.7241 75.6543 20.6848 75.6958 20.6157C75.7367 20.547 75.7958 20.0264 75.7958 20.0264C75.7958 20.0264 76.7667 20.9754 78.6047 20.9754C80.7625 20.9754 82 19.8466 82 15.9077C82 11.9689 80.0236 11.4542 78.6882 11.4542ZM52.7255 11.7066H50.9494L50.9467 9.28663C50.9467 9.19508 50.901 9.14925 50.7982 9.14925H48.3779C48.2838 9.14925 48.2333 9.19196 48.2333 9.28522V11.7861C48.2333 11.7861 47.0204 12.088 46.9384 12.1124C46.8974 12.1246 46.8615 12.1502 46.8359 12.1854C46.8103 12.2205 46.7965 12.2633 46.7966 12.3072V13.8787C46.7966 13.9917 46.8841 14.0829 46.9924 14.0829H48.2333V17.8635C48.2333 20.6716 50.1431 20.9474 51.4318 20.9474C52.0207 20.9474 52.7251 20.7523 52.8414 20.7081C52.9117 20.6814 52.9525 20.6064 52.9525 20.5248L52.9545 18.7961C52.9545 18.6834 52.8622 18.5921 52.7582 18.5921C52.6547 18.5921 52.39 18.6355 52.1174 18.6355C51.245 18.6355 50.9494 18.2171 50.9494 17.6757L50.9493 14.083H52.7255C52.7514 14.0829 52.777 14.0775 52.8008 14.0672C52.8247 14.0569 52.8463 14.0418 52.8645 14.0228C52.8827 14.0038 52.8971 13.9813 52.9069 13.9566C52.9166 13.9319 52.9216 13.9054 52.9214 13.8787V11.9104C52.9214 11.7976 52.8338 11.7066 52.7255 11.7066Z" fill="white"/>
</g>
<defs>
<clipPath id="clip0_41_145">
<rect width="50" height="14" fill="white" transform="translate(32 7)"/>
</clipPath>
</defs>
</svg>
