<svg width="96" height="96" viewBox="0 0 96 96" fill="none" xmlns="http://www.w3.org/2000/svg">
<rect x="0.5" y="0.5" width="95" height="95" rx="7.5" stroke="white"/>
<rect x="14.5" y="10.5" width="67" height="68" rx="7.5" stroke="black"/>
<path d="M25.3333 17.1875H73.5L67.8333 66.0625L49.4167 71.8125L29.5833 66.0625L25.3333 17.1875Z" fill="url(#paint0_linear_54_129)"/>
<path d="M68.7258 21.5L63.9375 62.7706L49.4167 67.2988V21.5H68.7258Z" fill="#010816"/>
<path d="M49.4167 40.1875L50.8333 43.0625L49.4167 45.9375H36.3692L37.5733 27.25H49.4167L50.8333 30.125L49.4167 33H43.7925L43.325 40.1875H49.4167Z" fill="#FAF9F8"/>
<path d="M49.275 56.8194L49.4167 56.7763L50.8333 60.3125L49.4167 62.785L49.3317 62.8138L37.5308 59.3925L36.7375 50.25H42.4325L42.8292 54.9506L49.275 56.8194Z" fill="#EBEBEB"/>
<path d="M62.2658 40.1875L60.0417 59.4787L49.4167 62.785V56.7763L54.8425 55.08L55.8908 45.9375H49.4167V40.1875H62.2658Z" fill="white"/>
<path d="M63.47 35.875H57.8175L57.4492 33H49.4167V27.25H62.3508L62.5917 29.0613L63.47 35.875Z" fill="white"/>
<mask id="path-9-outside-1_54_129" maskUnits="userSpaceOnUse" x="34" y="79" width="28" height="10" fill="black">
<rect fill="white" x="34" y="79" width="28" height="10"/>
<path d="M41.14 80.03V87H40.23V83.84H36.68V87H35.77V80.03H36.68V83.09H40.23V80.03H41.14ZM46.9838 80.03V80.77H45.0838V87H44.1738V80.77H42.2638V80.03H46.9838ZM55.174 80.08V87H54.264V81.84L51.964 87H51.324L49.014 81.83V87H48.104V80.08H49.084L51.644 85.8L54.204 80.08H55.174ZM57.6273 86.26H60.0673V87H56.7173V80.03H57.6273V86.26Z"/>
</mask>
<path d="M41.14 80.03V87H40.23V83.84H36.68V87H35.77V80.03H36.68V83.09H40.23V80.03H41.14ZM46.9838 80.03V80.77H45.0838V87H44.1738V80.77H42.2638V80.03H46.9838ZM55.174 80.08V87H54.264V81.84L51.964 87H51.324L49.014 81.83V87H48.104V80.08H49.084L51.644 85.8L54.204 80.08H55.174ZM57.6273 86.26H60.0673V87H56.7173V80.03H57.6273V86.26Z" fill="white"/>
<path d="M41.14 80.03H42.14V79.03H41.14V80.03ZM41.14 87V88H42.14V87H41.14ZM40.23 87H39.23V88H40.23V87ZM40.23 83.84H41.23V82.84H40.23V83.84ZM36.68 83.84V82.84H35.68V83.84H36.68ZM36.68 87V88H37.68V87H36.68ZM35.77 87H34.77V88H35.77V87ZM35.77 80.03V79.03H34.77V80.03H35.77ZM36.68 80.03H37.68V79.03H36.68V80.03ZM36.68 83.09H35.68V84.09H36.68V83.09ZM40.23 83.09V84.09H41.23V83.09H40.23ZM40.23 80.03V79.03H39.23V80.03H40.23ZM40.14 80.03V87H42.14V80.03H40.14ZM41.14 86H40.23V88H41.14V86ZM41.23 87V83.84H39.23V87H41.23ZM40.23 82.84H36.68V84.84H40.23V82.84ZM35.68 83.84V87H37.68V83.84H35.68ZM36.68 86H35.77V88H36.68V86ZM36.77 87V80.03H34.77V87H36.77ZM35.77 81.03H36.68V79.03H35.77V81.03ZM35.68 80.03V83.09H37.68V80.03H35.68ZM36.68 84.09H40.23V82.09H36.68V84.09ZM41.23 83.09V80.03H39.23V83.09H41.23ZM40.23 81.03H41.14V79.03H40.23V81.03ZM46.9838 80.03H47.9838V79.03H46.9838V80.03ZM46.9838 80.77V81.77H47.9838V80.77H46.9838ZM45.0838 80.77V79.77H44.0838V80.77H45.0838ZM45.0838 87V88H46.0838V87H45.0838ZM44.1738 87H43.1738V88H44.1738V87ZM44.1738 80.77H45.1738V79.77H44.1738V80.77ZM42.2638 80.77H41.2638V81.77H42.2638V80.77ZM42.2638 80.03V79.03H41.2638V80.03H42.2638ZM45.9838 80.03V80.77H47.9838V80.03H45.9838ZM46.9838 79.77H45.0838V81.77H46.9838V79.77ZM44.0838 80.77V87H46.0838V80.77H44.0838ZM45.0838 86H44.1738V88H45.0838V86ZM45.1738 87V80.77H43.1738V87H45.1738ZM44.1738 79.77H42.2638V81.77H44.1738V79.77ZM43.2638 80.77V80.03H41.2638V80.77H43.2638ZM42.2638 81.03H46.9838V79.03H42.2638V81.03ZM55.174 80.08H56.174V79.08H55.174V80.08ZM55.174 87V88H56.174V87H55.174ZM54.264 87H53.264V88H54.264V87ZM54.264 81.84H55.264L53.3506 81.4329L54.264 81.84ZM51.964 87V88H52.6131L52.8774 87.4071L51.964 87ZM51.324 87L50.411 87.4079L50.6755 88H51.324V87ZM49.014 81.83L49.927 81.4221L48.014 81.83H49.014ZM49.014 87V88H50.014V87H49.014ZM48.104 87H47.104V88H48.104V87ZM48.104 80.08V79.08H47.104V80.08H48.104ZM49.084 80.08L49.9967 79.6715L49.732 79.08H49.084V80.08ZM51.644 85.8L50.7312 86.2085L51.644 88.2479L52.5567 86.2085L51.644 85.8ZM54.204 80.08V79.08H53.556L53.2912 79.6715L54.204 80.08ZM54.174 80.08V87H56.174V80.08H54.174ZM55.174 86H54.264V88H55.174V86ZM55.264 87V81.84H53.264V87H55.264ZM53.3506 81.4329L51.0506 86.5929L52.8774 87.4071L55.1774 82.2471L53.3506 81.4329ZM51.964 86H51.324V88H51.964V86ZM52.237 86.5921L49.927 81.4221L48.101 82.2379L50.411 87.4079L52.237 86.5921ZM48.014 81.83V87H50.014V81.83H48.014ZM49.014 86H48.104V88H49.014V86ZM49.104 87V80.08H47.104V87H49.104ZM48.104 81.08H49.084V79.08H48.104V81.08ZM48.1712 80.4885L50.7312 86.2085L52.5567 85.3915L49.9967 79.6715L48.1712 80.4885ZM52.5567 86.2085L55.1167 80.4885L53.2912 79.6715L50.7312 85.3915L52.5567 86.2085ZM54.204 81.08H55.174V79.08H54.204V81.08ZM57.6273 86.26H56.6273V87.26H57.6273V86.26ZM60.0673 86.26H61.0673V85.26H60.0673V86.26ZM60.0673 87V88H61.0673V87H60.0673ZM56.7173 87H55.7173V88H56.7173V87ZM56.7173 80.03V79.03H55.7173V80.03H56.7173ZM57.6273 80.03H58.6273V79.03H57.6273V80.03ZM57.6273 87.26H60.0673V85.26H57.6273V87.26ZM59.0673 86.26V87H61.0673V86.26H59.0673ZM60.0673 86H56.7173V88H60.0673V86ZM57.7173 87V80.03H55.7173V87H57.7173ZM56.7173 81.03H57.6273V79.03H56.7173V81.03ZM56.6273 80.03V86.26H58.6273V80.03H56.6273Z" fill="black" mask="url(#path-9-outside-1_54_129)"/>
<defs>
<linearGradient id="paint0_linear_54_129" x1="36.9998" y1="5.5" x2="58.4998" y2="72" gradientUnits="userSpaceOnUse">
<stop stop-color="white"/>
<stop offset="1" stop-color="#010816"/>
</linearGradient>
</defs>
</svg>
