<svg width="96" height="96" viewBox="0 0 96 96" fill="none" xmlns="http://www.w3.org/2000/svg">
<rect x="0.5" y="0.5" width="95" height="95" rx="7.5" stroke="#010816"/>
<path d="M25.3333 17.1875H73.5L67.8333 66.0625L49.4167 71.8125L29.5833 66.0625L25.3333 17.1875Z" fill="url(#paint0_linear_54_129)"/>
<path d="M68.7258 21.5L63.9375 62.7706L49.4167 67.2988V21.5H68.7258Z" fill="#010816"/>
<path d="M49.4167 40.1875L50.8333 43.0625L49.4167 45.9375H36.3692L37.5733 27.25H49.4167L50.8333 30.125L49.4167 33H43.7925L43.325 40.1875H49.4167Z" fill="#FAF9F8"/>
<path d="M49.275 56.8194L49.4167 56.7763L50.8333 60.3125L49.4167 62.785L49.3317 62.8138L37.5308 59.3925L36.7375 50.25H42.4325L42.8292 54.9506L49.275 56.8194Z" fill="#EBEBEB"/>
<path d="M62.2658 40.1875L60.0417 59.4787L49.4167 62.785V56.7763L54.8425 55.08L55.8908 45.9375H49.4167V40.1875H62.2658Z" fill="white"/>
<path d="M63.47 35.875H57.8175L57.4492 33H49.4167V27.25H62.3508L62.5917 29.0613L63.47 35.875Z" fill="white"/>
<path d="M41.14 80.03V87H40.23V83.84H36.68V87H35.77V80.03H36.68V83.09H40.23V80.03H41.14ZM46.9838 80.03V80.77H45.0838V87H44.1738V80.77H42.2638V80.03H46.9838ZM55.174 80.08V87H54.264V81.84L51.964 87H51.324L49.014 81.83V87H48.104V80.08H49.084L51.644 85.8L54.204 80.08H55.174ZM57.6273 86.26H60.0673V87H56.7173V80.03H57.6273V86.26Z" fill="white"/>
<defs>
<linearGradient id="paint0_linear_54_129" x1="36.9998" y1="5.5" x2="58.4998" y2="72" gradientUnits="userSpaceOnUse">
<stop stop-color="white"/>
<stop offset="1" stop-color="#010816"/>
</linearGradient>
</defs>
</svg>
