<svg width="116" height="28" viewBox="0 0 116 28" fill="none" xmlns="http://www.w3.org/2000/svg">
<rect width="28" height="28" rx="7" fill="white"/>
<rect x="4.20001" y="4.20001" width="19.6" height="19.6" rx="7" fill="#010816"/>
<circle cx="14" cy="14" r="5.6" fill="white"/>
<circle cx="14" cy="14" r="2.8" fill="#010816"/>
<circle cx="19.25" cy="7.34998" r="1.75" fill="white"/>
<g clip-path="url(#clip0_41_155)">
<path d="M40.2386 3.14211C38.6062 3.83148 36.812 5.77655 36.2453 8.21991C35.5275 11.3147 38.514 12.6238 38.7592 12.1951C39.0475 11.6909 38.224 11.5204 38.0545 9.91451C37.8355 7.84041 38.7919 5.52292 39.9956 4.50604C40.219 4.317 40.2086 4.58008 40.2086 5.06639C40.2086 5.93614 40.1609 13.7442 40.1609 15.3737C40.1609 17.5785 40.0706 18.2749 39.9083 18.963C39.744 19.66 39.4797 20.1312 39.6798 20.3127C39.9036 20.5156 40.8589 20.0328 41.4119 19.2547C42.075 18.3215 42.3072 17.2005 42.3489 15.9835C42.3992 14.5162 42.397 12.1879 42.3992 10.8599C42.4011 9.64197 42.4195 6.07555 42.378 3.93151C42.3678 3.40535 40.9212 2.85366 40.2386 3.14211ZM98.1984 13.4611C98.1458 14.6075 97.894 15.5033 97.5817 16.1354C96.977 17.3589 95.7223 17.7388 95.1895 15.98C94.8992 15.0213 94.8856 13.4201 95.0942 12.0822C95.3067 10.7193 95.9001 9.69002 96.8825 9.78281C97.8515 9.87465 98.3051 11.1333 98.1984 13.4611ZM81.8625 20.5733C81.8494 22.4779 81.552 24.1477 80.9145 24.6329C80.0101 25.3207 78.7947 24.8046 79.0464 23.4149C79.269 22.185 80.3223 20.929 81.8651 19.3943C81.8651 19.3943 81.8683 19.7443 81.8625 20.5733ZM81.6156 13.45C81.5603 14.4942 81.2919 15.5429 80.9989 16.1355C80.3942 17.3591 79.1305 17.7416 78.6067 15.9802C78.2486 14.7766 78.3344 13.2193 78.5114 12.2378C78.7414 10.9645 79.2989 9.78312 80.2997 9.78312C81.2728 9.78312 81.7528 10.8596 81.6156 13.45ZM72.1523 13.4343C72.093 14.5399 71.879 15.4641 71.5358 16.1355C70.9145 17.3508 69.6855 17.7361 69.1436 15.9802C68.7528 14.7141 68.8858 12.9878 69.0483 12.0552C69.2895 10.6713 69.8936 9.69018 70.8365 9.78312C71.8051 9.87859 72.2759 11.1337 72.1523 13.4343ZM115.52 14.7258C115.283 14.7258 115.175 14.9718 115.086 15.3858C114.776 16.8263 114.45 17.1513 114.03 17.1513C113.56 17.1513 113.138 16.4383 113.03 15.0107C112.944 13.8882 112.958 11.8216 113.067 9.76595C113.089 9.3436 112.974 8.92566 111.85 8.51418C111.367 8.33712 110.664 8.0764 110.314 8.92803C109.325 11.3342 108.938 13.2445 108.847 14.0202C108.843 14.0603 108.794 14.0687 108.785 13.9748C108.727 13.3533 108.598 12.2238 108.581 9.85102C108.578 9.38803 108.481 8.99403 107.974 8.6714C107.645 8.46188 106.647 8.09168 106.287 8.5323C105.976 8.89243 105.615 9.86189 105.24 11.0113C104.935 11.9454 104.723 12.5772 104.723 12.5772C104.723 12.5772 104.727 10.0569 104.731 9.10084C104.732 8.74025 104.487 8.62005 104.413 8.59831C104.08 8.50095 103.424 8.33822 103.145 8.33822C102.802 8.33822 102.717 8.53167 102.717 8.81397C102.717 8.85099 102.663 12.1321 102.663 14.4264C102.663 14.5262 102.663 14.6349 102.664 14.7505C102.474 15.805 101.857 17.2364 101.187 17.2364C100.516 17.2364 100.199 16.6381 100.199 13.9028C100.199 12.3071 100.247 11.6132 100.27 10.4591C100.284 9.79431 100.31 9.2839 100.308 9.16811C100.303 8.81287 99.6942 8.63375 99.4106 8.56759C99.1258 8.50095 98.8783 8.47496 98.685 8.48614C98.4114 8.5019 98.2178 8.68259 98.2178 8.93149C98.2178 9.06508 98.2194 9.31871 98.2194 9.31871C97.867 8.76041 97.3003 8.37193 96.9233 8.25929C95.9076 7.95525 94.8479 8.22464 94.0486 9.35243C93.4133 10.2483 93.0303 11.2633 92.8795 12.7213C92.7694 13.7873 92.8053 14.8682 93.0012 15.7823C92.7645 16.8139 92.3253 17.2364 91.8442 17.2364C91.1458 17.2364 90.6395 16.0873 90.6983 14.0996C90.737 12.7922 90.9965 11.8747 91.2801 10.5473C91.4011 9.98146 91.3028 9.68529 91.0564 9.40142C90.8303 9.14101 90.3486 9.0079 89.6564 9.17142C89.1633 9.28815 88.4581 9.41371 87.813 9.51012C87.813 9.51012 87.852 9.35337 87.8839 9.07737C88.0517 7.62963 86.4912 7.74699 85.9933 8.20936C85.6962 8.48551 85.4939 8.81114 85.4172 9.39653C85.2953 10.3257 86.0469 10.7639 86.0469 10.7639C85.8004 11.902 85.1959 13.3885 84.5719 14.4633C84.2376 15.0391 83.982 15.4659 83.6519 15.9194C83.6411 14.0993 83.6529 12.2791 83.6872 10.4593C83.7008 9.79447 83.7272 9.2976 83.7258 9.18166C83.722 8.92204 83.5715 8.82374 83.2586 8.6996C82.9817 8.58964 82.6545 8.51371 82.315 8.48693C81.8865 8.45354 81.6284 8.68243 81.6353 8.95339C81.6365 9.00459 81.6365 9.31871 81.6365 9.31871C81.2842 8.76041 80.7175 8.37193 80.3405 8.25929C79.3248 7.95525 78.2651 8.22464 77.4658 9.35243C76.8306 10.2483 76.4147 11.5058 76.2967 12.7103C76.187 13.8327 76.2072 14.7866 76.3569 15.5903C76.1954 16.395 75.7311 17.2365 75.2062 17.2365C74.535 17.2365 74.1531 16.6381 74.1531 13.9028C74.1531 12.3071 74.2006 11.6132 74.224 10.4591C74.2376 9.79447 74.2637 9.2839 74.2623 9.16811C74.2573 8.81287 73.6481 8.63391 73.3645 8.56759C73.068 8.49827 72.8119 8.47307 72.6151 8.48772C72.3558 8.5071 72.1733 8.74135 72.1733 8.91606V9.31871C71.8209 8.76041 71.2542 8.37193 70.8772 8.25929C69.8615 7.95525 68.8078 8.22905 68.0025 9.35243C67.4775 10.0848 67.0523 10.8967 66.8336 12.6942C66.7703 13.2136 66.7423 13.7002 66.7461 14.1547C66.5367 15.4459 65.6117 16.9339 64.8553 16.9339C64.4126 16.9339 63.9909 16.0681 63.9909 14.2232C63.9909 11.7657 64.1419 8.26654 64.1675 7.92942C64.1675 7.92942 65.1233 7.91303 65.3083 7.91083C65.7851 7.90547 66.2169 7.91697 66.852 7.88405C67.1705 7.86782 67.4773 6.71514 67.1486 6.57258C66.9995 6.50799 65.9465 6.45159 65.529 6.44261C65.1781 6.43473 64.2009 6.36164 64.2009 6.36164C64.2009 6.36164 64.2886 4.03911 64.309 3.79383C64.3262 3.58919 64.0637 3.48396 63.9134 3.42016C63.5475 3.2642 63.2201 3.18937 62.8322 3.10871C62.2959 2.99718 62.0528 3.10635 62.0053 3.56241C61.9337 4.25477 61.8967 6.28271 61.8967 6.28271C61.5033 6.28271 60.1592 6.20521 59.7658 6.20521C59.4001 6.20521 59.0055 7.79063 59.5111 7.81016C60.0926 7.83285 61.1062 7.8527 61.7781 7.87286C61.7781 7.87286 61.7481 11.4297 61.7481 12.528C61.7482 12.6446 61.7486 12.7574 61.7494 12.8664C61.3795 14.8096 60.077 15.8594 60.077 15.8594C60.3567 14.5737 59.7853 13.6082 58.7561 12.7909C58.3769 12.4899 57.6283 11.9198 56.7908 11.295C56.7908 11.295 57.2758 10.8129 57.7061 9.84314C58.0108 9.15598 58.024 8.37004 57.2758 8.1966C56.0395 7.90988 55.0203 8.82532 54.7162 9.80266C54.4806 10.5598 54.6062 11.1214 55.0678 11.7049C55.1014 11.7476 55.1381 11.7912 55.1756 11.835C54.8967 12.3772 54.5133 13.1074 54.1886 13.6736C53.2873 15.2458 52.6065 16.489 52.092 16.489C51.6808 16.489 51.6862 15.2266 51.6862 14.0446C51.6862 13.0257 51.7609 11.4936 51.8206 9.90773C51.8403 9.38314 51.58 9.0843 51.144 8.81366C50.879 8.64919 50.3136 8.32593 49.9861 8.32593C49.4958 8.32593 48.0814 8.3932 46.7451 12.2906C46.5767 12.7818 46.2458 13.6769 46.2458 13.6769L46.2744 8.9901C46.2744 8.88014 46.2162 8.77396 46.0833 8.70134C45.8581 8.57799 45.2567 8.32593 44.7219 8.32593C44.4672 8.32604 44.3398 8.44524 44.3398 8.68353L44.2933 16.0161C44.2933 16.5733 44.3076 17.2233 44.3623 17.5075C44.4167 17.792 44.505 18.0236 44.614 18.1613C44.7233 18.2988 44.8494 18.4039 45.0573 18.447C45.2509 18.4872 46.3109 18.6244 46.3661 18.2161C46.432 17.7265 46.4347 17.1972 46.9912 15.2226C47.8578 12.1483 48.9875 10.6486 49.5187 10.1158C49.6117 10.0229 49.7176 10.0172 49.7125 10.1696C49.69 10.8435 49.6101 12.5278 49.5565 13.9583C49.4126 17.7871 50.1034 18.4968 51.0908 18.4968C51.8461 18.4968 52.9108 17.7402 54.052 15.8249C54.6879 14.7575 55.3209 13.6884 55.9509 12.6175C56.2967 12.9403 56.685 13.2876 57.0728 13.6588C57.9744 14.5214 58.2703 15.3412 58.0739 16.1188C57.9239 16.7132 57.3581 17.3259 56.3514 16.7305C56.058 16.5568 55.9326 16.4224 55.6376 16.2266C55.4792 16.1215 55.2372 16.09 55.092 16.2003C54.7151 16.4867 54.4995 16.8512 54.3764 17.3024C54.2567 17.7414 54.6928 17.9735 55.145 18.1765C55.5342 18.3513 56.3709 18.5096 56.9044 18.5275C58.9833 18.5976 60.6487 17.5155 61.8081 14.7242C62.0156 17.1349 62.8987 18.499 64.4333 18.499C65.4592 18.499 66.4878 17.162 66.9376 15.8468C67.0667 16.3829 67.258 16.8492 67.5048 17.2435C68.6872 19.1323 70.9809 18.7259 72.1331 17.1219C72.4894 16.6263 72.5436 16.4482 72.5436 16.4482C72.7117 17.9626 73.9214 18.4918 74.6139 18.4918C75.3897 18.4918 76.1905 18.122 76.7519 16.8479C76.8175 16.9864 76.8895 17.1183 76.968 17.2435C78.1503 19.1323 80.4442 18.7259 81.5964 17.1219C81.6506 17.0467 81.6981 16.9784 81.739 16.9171L81.7728 17.9119L80.712 18.8929C78.9339 20.5359 77.5833 21.782 77.4839 23.2334C77.3573 25.084 78.8451 25.7717 79.9723 25.8619C81.1672 25.9575 82.1923 25.2914 82.8214 24.3593C83.3751 23.5387 83.7376 21.7727 83.7109 20.0287C83.7005 19.3302 83.6828 18.4422 83.6692 17.4902C84.2934 16.7594 84.9967 15.8356 85.6442 14.7546C86.3498 13.5764 87.1061 11.9941 87.4933 10.7627C87.4933 10.7627 88.1503 10.7685 88.8515 10.7222C89.0758 10.7074 89.1403 10.7537 89.0987 10.9193C89.0487 11.1196 88.2128 14.37 88.9758 16.5354C89.4978 18.0178 90.6748 18.4945 91.3726 18.4945C92.1897 18.4945 92.9711 17.8725 93.3898 16.949C93.4405 17.0519 93.4931 17.1515 93.5508 17.2436C94.7331 19.1325 97.0189 18.7234 98.1792 17.1219C98.4411 16.7605 98.5897 16.4482 98.5897 16.4482C98.8386 18.0157 100.048 18.4998 100.74 18.4998C101.461 18.4998 102.146 18.2016 102.701 16.8766C102.725 17.4601 102.761 17.9371 102.819 18.0874C102.854 18.1795 103.059 18.2949 103.208 18.3506C103.868 18.5973 104.541 18.4807 104.79 18.43C104.962 18.3947 105.097 18.2552 105.115 17.895C105.164 16.949 105.134 15.3597 105.419 14.1783C105.896 12.1961 106.341 11.4272 106.553 11.0465C106.671 10.8331 106.804 10.798 106.809 11.0237C106.819 11.4806 106.842 12.8216 107.027 14.6238C107.162 15.949 107.344 16.7324 107.483 16.9805C107.881 17.6895 108.373 17.723 108.773 17.723C109.028 17.723 109.56 17.6521 109.513 17.2009C109.489 16.981 109.53 15.6218 110.001 13.6689C110.308 12.3935 110.821 11.2413 111.005 10.8199C111.074 10.6645 111.105 10.7869 111.104 10.8109C111.065 11.6891 110.978 14.5619 111.333 16.1332C111.814 18.2616 113.206 18.4998 113.691 18.4998C114.726 18.4998 115.573 17.7058 115.858 15.6166C115.927 15.1138 115.825 14.7258 115.52 14.7258Z" fill="white"/>
</g>
<defs>
<clipPath id="clip0_41_155">
<rect width="80" height="23" fill="white" transform="translate(36 3)"/>
</clipPath>
</defs>
</svg>
