<svg width="95" height="28" viewBox="0 0 95 28" fill="none" xmlns="http://www.w3.org/2000/svg">
<path d="M89.1667 3.5C89.7855 3.5 90.379 3.74583 90.8166 4.18342C91.2542 4.621 91.5 5.21449 91.5 5.83333V22.1667C91.5 22.7855 91.2542 23.379 90.8166 23.8166C90.379 24.2542 89.7855 24.5 89.1667 24.5H72.8333C72.2145 24.5 71.621 24.2542 71.1834 23.8166C70.7458 23.379 70.5 22.7855 70.5 22.1667V5.83333C70.5 5.21449 70.7458 4.621 71.1834 4.18342C71.621 3.74583 72.2145 3.5 72.8333 3.5H89.1667ZM88.5833 21.5833V15.4C88.5833 14.3913 88.1826 13.4239 87.4694 12.7106C86.7561 11.9974 85.7887 11.5967 84.78 11.5967C83.7883 11.5967 82.6333 12.2033 82.0733 13.1133V11.8183H78.8183V21.5833H82.0733V15.8317C82.0733 14.9333 82.7967 14.1983 83.695 14.1983C84.1282 14.1983 84.5436 14.3704 84.8499 14.6767C85.1562 14.983 85.3283 15.3985 85.3283 15.8317V21.5833H88.5833ZM75.0267 9.98667C75.5465 9.98667 76.045 9.78017 76.4126 9.4126C76.7802 9.04502 76.9867 8.54649 76.9867 8.02667C76.9867 6.94167 76.1117 6.055 75.0267 6.055C74.5037 6.055 74.0022 6.26273 73.6325 6.63249C73.2627 7.00225 73.055 7.50375 73.055 8.02667C73.055 9.11167 73.9417 9.98667 75.0267 9.98667ZM76.6483 21.5833V11.8183H73.4167V21.5833H76.6483Z" fill="white"/>
<path d="M1.96782 22V6.72727H4.73451V19.6808H11.4611V22H1.96782ZM13.893 22V10.5455H16.5926V22H13.893ZM15.2503 8.91974C14.8227 8.91974 14.4548 8.77805 14.1466 8.49467C13.8383 8.20632 13.6842 7.86079 13.6842 7.4581C13.6842 7.05043 13.8383 6.7049 14.1466 6.42152C14.4548 6.13317 14.8227 5.98899 15.2503 5.98899C15.6828 5.98899 16.0507 6.13317 16.354 6.42152C16.6622 6.7049 16.8163 7.05043 16.8163 7.4581C16.8163 7.86079 16.6622 8.20632 16.354 8.49467C16.0507 8.77805 15.6828 8.91974 15.2503 8.91974ZM22.2182 15.2884V22H19.5186V10.5455H22.0989V12.4918H22.2331C22.4966 11.8505 22.9167 11.3409 23.4934 10.9631C24.0751 10.5852 24.7935 10.3963 25.6486 10.3963C26.4391 10.3963 27.1276 10.5653 27.7143 10.9034C28.3059 11.2415 28.7633 11.7312 29.0864 12.3725C29.4146 13.0138 29.5761 13.7919 29.5712 14.7067V22H26.8716V15.1243C26.8716 14.3587 26.6727 13.7596 26.275 13.3271C25.8823 12.8945 25.3379 12.6783 24.6418 12.6783C24.1695 12.6783 23.7494 12.7827 23.3815 12.9915C23.0186 13.1953 22.7327 13.4911 22.5239 13.8789C22.3201 14.2667 22.2182 14.7365 22.2182 15.2884ZM34.9264 18.4055L34.919 15.1467H35.3515L39.468 10.5455H42.6225L37.5589 16.1832H36.9996L34.9264 18.4055ZM32.4655 22V6.72727H35.1651V22H32.4655ZM39.6544 22L35.9257 16.7873L37.7453 14.8857L42.8835 22H39.6544ZM49.1709 22.2237C48.0225 22.2237 47.0306 21.9851 46.1954 21.5078C45.3651 21.0256 44.7263 20.3445 44.2788 19.4645C43.8314 18.5795 43.6077 17.538 43.6077 16.3398C43.6077 15.1616 43.8314 14.1275 44.2788 13.2376C44.7313 12.3427 45.3626 11.6467 46.173 11.1495C46.9834 10.6474 47.9354 10.3963 49.0292 10.3963C49.7352 10.3963 50.4014 10.5107 51.0278 10.7393C51.6592 10.9631 52.216 11.3111 52.6982 11.7834C53.1854 12.2557 53.5683 12.8572 53.8467 13.5881C54.1251 14.3139 54.2643 15.179 54.2643 16.1832V17.011H44.8754V15.1914H51.6766C51.6716 14.6744 51.5597 14.2145 51.341 13.8118C51.1222 13.4041 50.8165 13.0835 50.4237 12.8498C50.0359 12.6161 49.5835 12.4993 49.0665 12.4993C48.5146 12.4993 48.0299 12.6335 47.6123 12.902C47.1947 13.1655 46.869 13.5135 46.6354 13.946C46.4067 14.3736 46.2899 14.8434 46.2849 15.3555V16.9439C46.2849 17.6101 46.4067 18.1818 46.6503 18.6591C46.8939 19.1314 47.2345 19.4943 47.672 19.7479C48.1095 19.9964 48.6215 20.1207 49.2082 20.1207C49.6009 20.1207 49.9564 20.0661 50.2746 19.9567C50.5928 19.8423 50.8687 19.6758 51.1024 19.457C51.336 19.2383 51.5125 18.9673 51.6318 18.6442L54.1524 18.9276C53.9933 19.5937 53.6901 20.1754 53.2426 20.6726C52.8001 21.1648 52.2334 21.5476 51.5423 21.821C50.8513 22.0895 50.0608 22.2237 49.1709 22.2237ZM60.9488 22.2013C60.049 22.2013 59.2436 21.9702 58.5326 21.5078C57.8217 21.0455 57.2599 20.3743 56.8473 19.4943C56.4346 18.6143 56.2283 17.5455 56.2283 16.2876C56.2283 15.0149 56.4371 13.9411 56.8547 13.0661C57.2773 12.1861 57.8465 11.5224 58.5625 11.0749C59.2784 10.6225 60.0763 10.3963 60.9563 10.3963C61.6274 10.3963 62.1793 10.5107 62.6118 10.7393C63.0443 10.9631 63.3874 11.234 63.6409 11.5522C63.8945 11.8654 64.0909 12.1612 64.2301 12.4396H64.3419V6.72727H67.049V22H64.3941V20.1953H64.2301C64.0909 20.4737 63.8895 20.7695 63.626 21.0827C63.3625 21.391 63.0145 21.6545 62.582 21.8732C62.1495 22.092 61.6051 22.2013 60.9488 22.2013ZM61.702 19.9865C62.2737 19.9865 62.761 19.8324 63.1637 19.5241C63.5664 19.2109 63.8721 18.7759 64.0809 18.2191C64.2897 17.6623 64.3941 17.0135 64.3941 16.2727C64.3941 15.532 64.2897 14.8881 64.0809 14.3413C63.8771 13.7944 63.5738 13.3693 63.1711 13.0661C62.7734 12.7628 62.2837 12.6112 61.702 12.6112C61.1005 12.6112 60.5983 12.7678 60.1956 13.081C59.7929 13.3942 59.4897 13.8267 59.2858 14.3786C59.082 14.9304 58.9801 15.5618 58.9801 16.2727C58.9801 16.9886 59.082 17.6275 59.2858 18.1893C59.4946 18.7461 59.8004 19.1861 60.2031 19.5092C60.6108 19.8274 61.1104 19.9865 61.702 19.9865Z" fill="white"/>
</svg>
