<svg width="96" height="96" viewBox="0 0 96 96" fill="none" xmlns="http://www.w3.org/2000/svg">
<path d="M34.07 78.11L33.97 78.92H32.06V85H31.11V78.92H29.15V78.11H34.07ZM38.168 83.77C38.168 83.9833 38.2046 84.1433 38.278 84.25C38.3513 84.35 38.4613 84.4267 38.608 84.48L38.398 85.12C38.1246 85.0867 37.9046 85.01 37.738 84.89C37.5713 84.77 37.448 84.5833 37.368 84.33C37.0146 84.8567 36.4913 85.12 35.798 85.12C35.278 85.12 34.868 84.9733 34.568 84.68C34.268 84.3867 34.118 84.0033 34.118 83.53C34.118 82.97 34.318 82.54 34.718 82.24C35.1246 81.94 35.698 81.79 36.438 81.79H37.248V81.4C37.248 81.0267 37.158 80.76 36.978 80.6C36.798 80.44 36.5213 80.36 36.148 80.36C35.7613 80.36 35.288 80.4533 34.728 80.64L34.498 79.97C35.1513 79.73 35.758 79.61 36.318 79.61C36.938 79.61 37.4013 79.7633 37.708 80.07C38.0146 80.37 38.168 80.8 38.168 81.36V83.77ZM36.008 84.43C36.5346 84.43 36.948 84.1567 37.248 83.61V82.4H36.558C35.5846 82.4 35.098 82.76 35.098 83.48C35.098 83.7933 35.1746 84.03 35.328 84.19C35.4813 84.35 35.708 84.43 36.008 84.43ZM40.9774 79.73V85H40.0574V79.73H40.9774ZM40.5074 77.2C40.7008 77.2 40.8574 77.26 40.9774 77.38C41.0974 77.5 41.1574 77.65 41.1574 77.83C41.1574 78.01 41.0974 78.16 40.9774 78.28C40.8574 78.3933 40.7008 78.45 40.5074 78.45C40.3208 78.45 40.1674 78.3933 40.0474 78.28C39.9274 78.16 39.8674 78.01 39.8674 77.83C39.8674 77.65 39.9274 77.5 40.0474 77.38C40.1674 77.26 40.3208 77.2 40.5074 77.2ZM43.9297 85.12C43.5897 85.12 43.3197 85.02 43.1197 84.82C42.9264 84.6133 42.8297 84.3267 42.8297 83.96V77.61L43.7497 77.5V83.94C43.7497 84.0867 43.773 84.1933 43.8197 84.26C43.873 84.3267 43.9597 84.36 44.0797 84.36C44.2064 84.36 44.3197 84.34 44.4197 84.3L44.6597 84.94C44.4397 85.06 44.1964 85.12 43.9297 85.12ZM51.8294 79.73L50.6294 85H49.3794L48.4594 80.56L47.5094 85H46.2894L45.0594 79.73H45.9794L46.9294 84.36L47.9694 79.73H48.9994L49.9894 84.36L50.9494 79.73H51.8294ZM53.8973 79.73V85H52.9773V79.73H53.8973ZM53.4273 77.2C53.6207 77.2 53.7773 77.26 53.8973 77.38C54.0173 77.5 54.0773 77.65 54.0773 77.83C54.0773 78.01 54.0173 78.16 53.8973 78.28C53.7773 78.3933 53.6207 78.45 53.4273 78.45C53.2407 78.45 53.0873 78.3933 52.9673 78.28C52.8473 78.16 52.7873 78.01 52.7873 77.83C52.7873 77.65 52.8473 77.5 52.9673 77.38C53.0873 77.26 53.2407 77.2 53.4273 77.2ZM58.2796 79.61C58.7596 79.61 59.1329 79.7533 59.3996 80.04C59.6729 80.3267 59.8096 80.72 59.8096 81.22V85H58.8896V81.35C58.8896 80.9767 58.8196 80.7133 58.6796 80.56C58.5396 80.4067 58.3329 80.33 58.0596 80.33C57.7796 80.33 57.5329 80.41 57.3196 80.57C57.1063 80.73 56.9063 80.96 56.7196 81.26V85H55.7996V79.73H56.5896L56.6696 80.51C56.8563 80.23 57.0863 80.01 57.3596 79.85C57.6396 79.69 57.9463 79.61 58.2796 79.61ZM65.739 77.61V85H64.929L64.839 84.27C64.6657 84.5367 64.449 84.7467 64.189 84.9C63.929 85.0467 63.639 85.12 63.319 85.12C62.6923 85.12 62.2023 84.8733 61.849 84.38C61.5023 83.8867 61.329 83.2233 61.329 82.39C61.329 81.85 61.4123 81.37 61.579 80.95C61.7457 80.53 61.9857 80.2033 62.299 79.97C62.6123 79.73 62.979 79.61 63.399 79.61C63.939 79.61 64.4123 79.8267 64.819 80.26V77.5L65.739 77.61ZM63.519 84.39C63.799 84.39 64.039 84.3267 64.239 84.2C64.439 84.0667 64.6323 83.87 64.819 83.61V81.03C64.6457 80.8033 64.459 80.6333 64.259 80.52C64.0657 80.4 63.8457 80.34 63.599 80.34C63.1923 80.34 62.8757 80.51 62.649 80.85C62.429 81.19 62.319 81.6967 62.319 82.37C62.319 83.05 62.4223 83.5567 62.629 83.89C62.8357 84.2233 63.1323 84.39 63.519 84.39Z" fill="white"/>
<path d="M48 33C41.325 33 37.175 36.325 35.5 43C38 39.675 40.925 38.425 44.25 39.25C46.15 39.725 47.525 41.1 49.025 42.625C51.475 45.125 54.25 48 60.5 48C67.175 48 71.325 44.675 73 38C70.5 41.325 67.575 42.575 64.25 41.75C62.35 41.275 61 39.9 59.475 38.375C57.025 35.875 54.25 33 48 33ZM35.5 48C28.825 48 24.675 51.325 23 58C25.5 54.675 28.425 53.425 31.75 54.25C33.65 54.725 35 56.1 36.525 57.625C38.975 60.125 41.75 63 48 63C54.675 63 58.825 59.675 60.5 53C58 56.325 55.075 57.575 51.75 56.75C49.85 56.275 48.5 54.9 46.975 53.375C44.525 50.875 41.75 48 35.5 48Z" fill="url(#paint0_linear_107_156)"/>
<defs>
<linearGradient id="paint0_linear_107_156" x1="29.5" y1="33" x2="77.5" y2="70" gradientUnits="userSpaceOnUse">
<stop stop-color="white"/>
<stop offset="1" stop-color="#010816"/>
</linearGradient>
</defs>
</svg>
