<svg width="153" height="20" viewBox="0 0 153 20" fill="none" xmlns="http://www.w3.org/2000/svg">
<path d="M5.2618 2.63158C5.2618 4.08496 4.0839 5.26316 2.6309 5.26316C1.17789 5.26316 0 4.08496 0 2.63158C0 1.1782 1.17789 0 2.6309 0C4.0839 0 5.2618 1.1782 5.2618 2.63158Z" fill="white"/>
<path d="M5.2618 10C5.2618 11.4534 4.0839 12.6316 2.6309 12.6316C1.17789 12.6316 0 11.4534 0 10C0 8.54662 1.17789 7.36842 2.6309 7.36842C4.0839 7.36842 5.2618 8.54662 5.2618 10Z" fill="white"/>
<path d="M12.4529 2.63158C12.4529 4.08496 11.275 5.26316 9.82202 5.26316C8.36902 5.26316 7.19112 4.08496 7.19112 2.63158C7.19112 1.1782 8.36902 0 9.82202 0C11.275 0 12.4529 1.1782 12.4529 2.63158Z" fill="white"/>
<path d="M12.4529 10C12.4529 11.4534 11.275 12.6316 9.82202 12.6316C8.36902 12.6316 7.19112 11.4534 7.19112 10C7.19112 8.54662 8.36902 7.36842 9.82202 7.36842C11.275 7.36842 12.4529 8.54662 12.4529 10Z" fill="white"/>
<path d="M12.4529 17.3684C12.4529 18.8218 11.275 20 9.82202 20C8.36902 20 7.19112 18.8218 7.19112 17.3684C7.19112 15.915 8.36902 14.7368 9.82202 14.7368C11.275 14.7368 12.4529 15.915 12.4529 17.3684Z" fill="white"/>
<path d="M19.644 10C19.644 11.4534 18.4662 12.6316 17.0131 12.6316C15.5601 12.6316 14.3822 11.4534 14.3822 10C14.3822 8.54662 15.5601 7.36842 17.0131 7.36842C18.4662 7.36842 19.644 8.54662 19.644 10Z" fill="white"/>
<path d="M19.644 17.3684C19.644 18.8218 18.4662 20 17.0131 20C15.5601 20 14.3822 18.8218 14.3822 17.3684C14.3822 15.915 15.5601 14.7368 17.0131 14.7368C18.4662 14.7368 19.644 15.915 19.644 17.3684Z" fill="white"/>
<path d="M32.2836 15.2632V13.9312H35.9135C36.8377 13.9312 37.6221 13.7244 38.2666 13.3109C38.9233 12.8851 39.4219 12.2952 39.7624 11.5411C40.115 10.7869 40.2913 9.89895 40.2913 8.87719C40.2913 7.84327 40.115 6.94924 39.7624 6.19509C39.4219 5.44094 38.9233 4.85708 38.2666 4.44351C37.6221 4.02994 36.8377 3.82316 35.9135 3.82316H32.2836V2.49123H35.9135C37.1174 2.49123 38.1511 2.75883 39.0145 3.29403C39.8779 3.82924 40.5406 4.57731 41.0027 5.53824C41.4648 6.48702 41.6959 7.6 41.6959 8.87719C41.6959 10.1544 41.4648 11.2735 41.0027 12.2344C40.5406 13.1832 39.8779 13.9251 39.0145 14.4604C38.1511 14.9956 37.1174 15.2632 35.9135 15.2632H32.2836ZM31.6269 15.2632V2.49123H32.995V15.2632H31.6269Z" fill="white"/>
<path d="M51.7351 15.2632L47.1201 2.87439L46.9924 2.49123H48.3605L53.2126 15.1172V15.2632H51.7351ZM42.1404 15.2632V15.1172L46.9924 2.49123H48.3605L48.2328 2.87439L43.6179 15.2632H42.1404ZM43.928 11.8877L44.4752 10.5558H51.0602L51.6074 11.8877H43.928Z" fill="white"/>
<path d="M63.1391 15.2632L54.7665 2.87439V2.49123H56.1346L64.5071 14.88V15.2632H63.1391ZM54.7665 15.2632V2.49123H56.1346V15.2632H54.7665ZM63.1391 15.2632V2.49123H64.5071V15.2632H63.1391Z" fill="white"/>
<path d="M70.3321 15.2632V10.2821L66.1549 2.63719V2.49123H67.6872L71.4083 9.55228H70.6787L74.3816 2.49123H75.8773V2.63719L71.7002 10.2821V15.2632H70.3321Z" fill="white"/>
<path d="M77.5142 15.2632V2.49123H78.8822V15.2632H77.5142ZM78.2256 15.2632V13.9312H85.5584V15.2632H78.2256ZM78.2256 9.46105V8.12912H85.1936V9.46105H78.2256ZM78.2256 3.82316V2.49123H85.5584V3.82316H78.2256Z" fill="white"/>
<path d="M87.935 15.2632V2.49123H89.3031V15.2632H87.935ZM88.6464 15.2632V13.9312H95.7968V15.2632H88.6464Z" fill="white"/>
<path d="M105.957 15.4821C105.118 15.4821 104.351 15.324 103.658 15.0077C102.965 14.6915 102.387 14.2536 101.925 13.694C101.463 13.1223 101.153 12.4594 100.995 11.7053L102.254 11.3951L102.454 11.4316C102.588 11.9425 102.825 12.4047 103.166 12.8182C103.506 13.2196 103.914 13.542 104.388 13.7853C104.874 14.0285 105.391 14.1502 105.938 14.1502C106.534 14.1502 107.057 14.0529 107.507 13.8582C107.969 13.6636 108.328 13.396 108.583 13.0554C108.851 12.7027 108.985 12.3013 108.985 11.8512C108.985 11.243 108.814 10.7808 108.474 10.4646C108.133 10.1361 107.671 9.89287 107.088 9.73474L104.589 9.0414C103.604 8.76164 102.856 8.32374 102.345 7.72772C101.834 7.1317 101.579 6.44444 101.579 5.66596C101.579 4.99696 101.749 4.4131 102.09 3.91439C102.442 3.40351 102.929 3.0021 103.549 2.71018C104.169 2.41825 104.88 2.27228 105.683 2.27228C106.473 2.27228 107.185 2.42433 107.817 2.72842C108.462 3.02035 108.991 3.43392 109.404 3.96912C109.83 4.50433 110.109 5.13076 110.243 5.84842L108.966 6.1221L108.766 6.08561C108.608 5.33146 108.249 4.72936 107.689 4.2793C107.13 3.82924 106.461 3.60421 105.683 3.60421C104.88 3.60421 104.236 3.79275 103.749 4.16982C103.275 4.5469 103.038 5.0517 103.038 5.68421C103.038 6.18292 103.208 6.59649 103.549 6.92491C103.889 7.25333 104.382 7.50877 105.026 7.69123L107.525 8.38456C108.45 8.64 109.167 9.05965 109.678 9.64351C110.188 10.2152 110.444 10.9268 110.444 11.7782C110.444 12.5202 110.255 13.171 109.878 13.7305C109.514 14.2779 108.991 14.7097 108.31 15.026C107.641 15.3301 106.856 15.4821 105.957 15.4821Z" fill="white"/>
<path d="M121.047 15.2632L116.432 2.87439L116.304 2.49123H117.672L122.524 15.1172V15.2632H121.047ZM111.452 15.2632V15.1172L116.304 2.49123H117.672L117.545 2.87439L112.93 15.2632H111.452ZM113.24 11.8877L113.787 10.5558H120.372L120.919 11.8877H113.24Z" fill="white"/>
<path d="M124.078 15.2632V2.49123H125.446V15.2632H124.078ZM124.79 15.2632V13.9312H131.94V15.2632H124.79Z" fill="white"/>
<path d="M133.769 15.2632V2.49123H135.137V15.2632H133.769ZM134.48 15.2632V13.9312H141.813V15.2632H134.48ZM134.48 9.46105V8.12912H141.448V9.46105H134.48ZM134.48 3.82316V2.49123H141.813V3.82316H134.48Z" fill="white"/>
<path d="M148.513 15.4821C147.674 15.4821 146.908 15.324 146.214 15.0077C145.521 14.6915 144.944 14.2536 144.481 13.694C144.019 13.1223 143.709 12.4594 143.551 11.7053L144.81 11.3951L145.01 11.4316C145.144 11.9425 145.381 12.4047 145.722 12.8182C146.062 13.2196 146.47 13.542 146.944 13.7853C147.43 14.0285 147.947 14.1502 148.494 14.1502C149.09 14.1502 149.613 14.0529 150.063 13.8582C150.525 13.6636 150.884 13.396 151.139 13.0554C151.407 12.7027 151.541 12.3013 151.541 11.8512C151.541 11.243 151.37 10.7808 151.03 10.4646C150.689 10.1361 150.227 9.89287 149.644 9.73474L147.145 9.0414C146.16 8.76164 145.412 8.32374 144.901 7.72772C144.39 7.1317 144.135 6.44444 144.135 5.66596C144.135 4.99696 144.305 4.4131 144.646 3.91439C144.998 3.40351 145.485 3.0021 146.105 2.71018C146.725 2.41825 147.437 2.27228 148.239 2.27228C149.03 2.27228 149.741 2.42433 150.373 2.72842C151.018 3.02035 151.547 3.43392 151.96 3.96912C152.386 4.50433 152.666 5.13076 152.799 5.84842L151.522 6.1221L151.322 6.08561C151.164 5.33146 150.805 4.72936 150.246 4.2793C149.686 3.82924 149.017 3.60421 148.239 3.60421C147.437 3.60421 146.792 3.79275 146.306 4.16982C145.831 4.5469 145.594 5.0517 145.594 5.68421C145.594 6.18292 145.764 6.59649 146.105 6.92491C146.445 7.25333 146.938 7.50877 147.582 7.69123L150.081 8.38456C151.006 8.64 151.723 9.05965 152.234 9.64351C152.745 10.2152 153 10.9268 153 11.7782C153 12.5202 152.812 13.171 152.435 13.7305C152.07 14.2779 151.547 14.7097 150.866 15.026C150.197 15.3301 149.413 15.4821 148.513 15.4821Z" fill="white"/>
</svg>
